<svg id="Layer_1" data-name="Layer 1" xmlns="http://www.w3.org/2000/svg" viewBox="0 0 512.19 512.19"><defs><style>.cls-1{fill:#fed7d7;}.cls-2{fill:#380f1f;}.cls-3{fill:#e65345;}.cls-4{fill:#e35345;}.cls-5{fill:#e35245;}.cls-6{fill:#e05347;}.cls-7{fill:#e35548;}.cls-8{fill:#d8544b;}.cls-9{fill:#d64e42;}.cls-10{fill:#ec6868;}.cls-11{fill:#fbf8fa;}.cls-12{fill:#fafaf9;}.cls-13{fill:#fdf9f7;}.cls-14{fill:#f9f5f1;}.cls-15{fill:#fbf5f7;}.cls-16{fill:#faf4f3;}.cls-17{fill:#f9f4f2;}.cls-18{fill:#fbefee;}.cls-19{fill:#fcebe4;}.cls-20{fill:#f4e2dc;}.cls-21{fill:#f3e0de;}.cls-22{fill:#f5ece5;}.cls-23{fill:#edfdfc;}.cls-24{fill:#f5f1ea;}.cls-25{fill:#f4dfdd;}.cls-26{fill:#ecf8f5;}.cls-27{fill:#f5e9da;}.cls-28{fill:#fefafb;}.cls-29{fill:#f7f3f0;}.cls-30{fill:#f7e9da;}.cls-31{fill:#f3dad8;}.cls-32{fill:#e0fafa;}.cls-33{fill:#e6ccce;}.cls-34{fill:#ddeede;}.cls-35{fill:#fbf9fa;}.cls-36{fill:#fbf7f9;}.cls-37{fill:#fbf8f9;}.cls-38{fill:#fbf7f8;}.cls-39{fill:#fcf9f7;}.cls-40{fill:#f9f7f4;}.cls-41{fill:#fbf9f7;}.cls-42{fill:#fbfbf9;}.cls-43{fill:#fcf7f5;}.cls-44{fill:#faf9f6;}.cls-45{fill:#fbfafa;}.cls-46{fill:#fbf0f3;}.cls-47{fill:#faf6f8;}.cls-48{fill:#f9f5f5;}.cls-49{fill:#fbf7f6;}.cls-50{fill:#f9f3f5;}.cls-51{fill:#f2fbf9;}.cls-52{fill:#f9f1ea;}.cls-53{fill:#fcf4f6;}.cls-54{fill:#fcf3f3;}.cls-55{fill:#fcf4f5;}.cls-56{fill:#fbf4ef;}.cls-57{fill:#f8f0ec;}.cls-58{fill:#fbf5f4;}.cls-59{fill:#fcf4f2;}.cls-60{fill:#f9f9f9;}.cls-61{fill:#fbf4f2;}.cls-62{fill:#faefe3;}.cls-63{fill:#f9f2ef;}.cls-64{fill:#fce9e4;}.cls-65{fill:#f6f7f1;}.cls-66{fill:#fdeee7;}.cls-67{fill:#fdeeef;}.cls-68{fill:#f1fdf9;}.cls-69{fill:#f6eaee;}.cls-70{fill:#fae3ef;}.cls-71{fill:#f2faf3;}.cls-72{fill:#f3ece9;}.cls-73{fill:#fdf3f6;}.cls-74{fill:#f5faf4;}.cls-75{fill:#f3fdfe;}.cls-76{fill:#faf6f1;}.cls-77{fill:#f3f8f6;}.cls-78{fill:#fde7d0;}.cls-79{fill:#f2faf4;}.cls-80{fill:#f3fcf5;}.cls-81{fill:#faeeeb;}.cls-82{fill:#fcf3f4;}.cls-83{fill:#f1f4ef;}.cls-84{fill:#f2f8fb;}.cls-85{fill:#f1f8f7;}.cls-86{fill:#fcf5ef;}.cls-87{fill:#ebfcf7;}.cls-88{fill:#fae6ce;}.cls-89{fill:#fbdbd3;}.cls-90{fill:#effbfb;}.cls-91{fill:#fcf4f1;}.cls-92{fill:#e7fef0;}.cls-93{fill:#faeccb;}.cls-94{fill:#f4fdfe;}.cls-95{fill:#fafbfe;}.cls-96{fill:#fdfdf8;}.cls-97{fill:#edfefa;}.cls-98{fill:#fcf2e3;}.cls-99{fill:#eefdfe;}.cls-100{fill:#f0fefb;}.cls-101{fill:#f5f5e8;}.cls-102{fill:#f6f6f5;}.cls-103{fill:#fdf8fe;}.cls-104{fill:#f8f1ef;}.cls-105{fill:#f0ebec;}.cls-106{fill:#f5e6dc;}.cls-107{fill:#fcccb0;}.cls-108{fill:#faece5;}.cls-109{fill:#fad8c7;}.cls-110{fill:#e4fdf4;}.cls-111{fill:#fcd9ca;}.cls-112{fill:#fbf0ea;}.cls-113{fill:#fedcc4;}.cls-114{fill:#fbe1f1;}.cls-115{fill:#fbf5ef;}.cls-116{fill:#f4e0d0;}.cls-117{fill:#f4eeee;}.cls-118{fill:#f6f5e3;}.cls-119{fill:#ecfdf1;}.cls-120{fill:#fbecc8;}.cls-121{fill:#eefefe;}.cls-122{fill:#fac7b0;}.cls-123{fill:#fedfc6;}.cls-124{fill:#e7f2e6;}.cls-125{fill:#fcebe3;}.cls-126{fill:#fdd9b8;}.cls-127{fill:#ecfaf7;}.cls-128{fill:#350f07;}.cls-129{fill:#f4fcfc;}.cls-130{fill:#fcf4ea;}.cls-131{fill:#f5e8e5;}.cls-132{fill:#f9f0e6;}.cls-133{fill:#fdf2f1;}.cls-134{fill:#f0fefa;}.cls-135{fill:#edfdfa;}.cls-136{fill:#feeade;}.cls-137{fill:#faf3ee;}.cls-138{fill:#e4fefb;}.cls-139{fill:#f2f9f5;}.cls-140{fill:#e8fefe;}.cls-141{fill:#e5fef7;}.cls-142{fill:#e5fbfe;}.cls-143{fill:#edfdf9;}.cls-144{fill:#f7ece1;}.cls-145{fill:#fbb8a5;}.cls-146{fill:#effefe;}.cls-147{fill:#fdc5b3;}.cls-148{fill:#fdbba8;}.cls-149{fill:#fef6fd;}.cls-150{fill:#edfcf1;}.cls-151{fill:#ebf7f1;}.cls-152{fill:#fee5db;}.cls-153{fill:#eefcfe;}.cls-154{fill:#e2fbf1;}.cls-155{fill:#fee4ce;}.cls-156{fill:#dbfefe;}.cls-157{fill:#fae7d4;}.cls-158{fill:#f0c5c3;}.cls-159{fill:#ed6556;}.cls-160{fill:#f1e3de;}.cls-161{fill:#fcf3f2;}.cls-162{fill:#fee5c9;}.cls-163{fill:#fcc9b7;}.cls-164{fill:#f17669;}.cls-165{fill:#fbf4eb;}.cls-166{fill:#fae2cd;}.cls-167{fill:#fdf4f4;}.cls-168{fill:#f1fcf0;}.cls-169{fill:#f9f1e5;}.cls-170{fill:#effcf9;}.cls-171{fill:#eefef9;}.cls-172{fill:#f1fbf9;}.cls-173{fill:#fef5fc;}.cls-174{fill:#effdfb;}.cls-175{fill:#f4fcf9;}.cls-176{fill:#effefd;}.cls-177{fill:#221820;}.cls-178{fill:#f4fefd;}.cls-179{fill:#e2fdfb;}.cls-180{fill:#f0fdfc;}.cls-181{fill:#e8fcfe;}.cls-182{fill:#effefc;}.cls-183{fill:#ebfcfb;}.cls-184{fill:#f3fefe;}.cls-185{fill:#e3fef9;}.cls-186{fill:#e3fefd;}.cls-187{fill:#e2fcfb;}.cls-188{fill:#edfefc;}.cls-189{fill:#f2fcf6;}.cls-190{fill:#f0fefd;}.cls-191{fill:#eafefc;}</style></defs><title>Logo_bg</title><path class="cls-1" d="M-5,250.5Q-5,124.75-5.1-1c0-3.42.68-4.1,4.1-4.09q252,.15,504,0c3.42,0,4.1.67,4.09,4.09q-.15,252,0,504c0,3.42-.67,4.1-4.09,4.09q-252-.15-504,0c-3.42,0-4.1-.67-4.1-4.09Q-4.9,376.75-5,250.5Z" transform="translate(5.1 5.09)"/><path class="cls-2" d="M129.44,358.54c-7.31-10.45-14.69-20.85-21.91-31.36-13.32-19.4-26.17-39.1-37.83-59.56a65.86,65.86,0,0,0-7.63-11,179.07,179.07,0,0,1-9.41-16.28c-1.31-2.47-2.8-4.93-2.88-7.88-1.61-6.5-5.26-12.11-8.05-18.07-4.56-9.72-7.26-20.2-12.54-29.59A32.86,32.86,0,0,1,25.1,171c.12-6.68-2.72-12.81-3.54-19.34-.57-4.55-1.77-9-2.69-13.53-1.4-4.37-.79-8.86-.85-13.32,1.51-8.3,1.19-16.83,3.29-25.08,8-31.56,28.31-50.95,58.87-60.77,24.46-7.86,47.52-5,69.68,7.44,1.61.9,3.1,1.91,5.06,1.6,6.46,2.55,11.7,7.06,17,11.25,22.8,18,40.19,40.64,55.59,65,3.56,5.63,6.87,11.41,10.28,17.13,2,3.27,3.69,3.06,6,.28,3.48-4.2,6.59-8.77,11.26-11.84,6.17-4.63,10.52-11,15.66-16.59C297.89,83.67,331,64.23,369.65,54.11c15.68-4.11,31.53-7.85,48-7.17,5.44.23,10.3,2.27,15.21,4.21,1.53.6,2.86,1.77,4.65,1.6,2.35-.35,4.11,1,5.89,2.16A108,108,0,0,1,475.77,86.6a19.61,19.61,0,0,1,2.87,8.84,85.92,85.92,0,0,1,6.51,40.84,277,277,0,0,1-6.52,39.16c-12,52.15-34.89,99.33-64.92,143.25-28.59,41.82-63,78.49-100.19,112.68-11.87,10.9-23.59,21.89-37.94,29.7-13,7.06-26.28,9.72-40.58,5a6.77,6.77,0,0,0-4.81-.19c-5.52-2.07-10.8-4.55-15.1-8.73-9.5-8.21-19.69-15.6-28.34-24.8-9.72-10.36-18-21.94-27.54-32.42-1.33-1.53-2.71-3-3.91-4.67-7.88-10.82-15.83-21.59-24-32.22A7,7,0,0,1,129.44,358.54Z" transform="translate(5.1 5.09)"/><path class="cls-3" d="M255.07,129.77c-3.54,6.26-9.22,10.78-13.45,16.49-1.43,1.93-2.47-.11-3.22-1.38-7.33-12.38-14.66-24.77-23.05-36.48C199.2,85.83,181.09,65.19,157,50.58A4.26,4.26,0,0,1,154.92,48c5.78-4.75,11.91-3.24,17.53-.2,11.84,6.42,21.52,15.51,30.66,25.37,4.53,4.89,9.62,9.29,14.12,14.3,11.89,13.25,24,26.35,36,39.49C254,127.79,254.89,128.53,255.07,129.77Z" transform="translate(5.1 5.09)"/><path class="cls-4" d="M478.64,95.44c-2.89-5.72-5.89-11.31-10-16.32A106.76,106.76,0,0,0,441.09,55.3c-1.3-.77-2.4-1.7-3.59-2.55,5.8-2.78,9.38-2.31,13.76,2.18,8.64,8.87,17.12,17.91,25.82,26.73C481.34,86,480.36,90.6,478.64,95.44Z" transform="translate(5.1 5.09)"/><path class="cls-5" d="M129.44,358.54c9.3,11.77,18.6,23.54,26.59,36.27.53,1.22-.13,1.38-1.12,1.26-8.36-8.14-16.88-16.12-25-24.49C126.16,367.72,126,363,129.44,358.54Z" transform="translate(5.1 5.09)"/><path class="cls-6" d="M49.78,232.46c3,5.45,6.18,10.8,8.86,16.39,1.22,2.53,4.48,4.25,3.43,7.77-3.43-3.27-7-6.41-10.26-9.85C47.82,242.57,46.44,237.8,49.78,232.46Z" transform="translate(5.1 5.09)"/><path class="cls-7" d="M215.09,457.11c5.22,2.59,10.91,4.35,15.1,8.73-4.09,2.68-7.53,1.06-10.46-1.93C217.82,462,215.72,460,215.09,457.11Z" transform="translate(5.1 5.09)"/><path class="cls-8" d="M25.1,171a31.46,31.46,0,0,1,4.09,13.83C24.61,181.14,22.09,176.87,25.1,171Z" transform="translate(5.1 5.09)"/><path class="cls-9" d="M18,124.78c1.46,4.37,1,8.86.85,13.32C16.06,133.82,16,129.37,18,124.78Z" transform="translate(5.1 5.09)"/><path class="cls-10" d="M154.91,396.07l1.12-1.26c1.06,1.69,3.27,2.67,3.18,5.08C157.16,399.31,156.09,397.63,154.91,396.07Z" transform="translate(5.1 5.09)"/><path class="cls-3" d="M46.68,140.55C45.53,121.26,45.32,102,53.54,84c2-4.32,3.26-10,9.43-11.08a1.54,1.54,0,0,1,1.22-.32,8.7,8.7,0,0,1,3.31,2,18.24,18.24,0,0,0,3.27,3.12c4.32,4.14,8.77,8.13,12.9,12.46,4.07,4,8,8.13,12.19,12.09,10.1,9.88,19.61,20.36,30.23,29.7a36.26,36.26,0,0,1,3.42,3.13c.75.77,1.5,1.55,2.27,2.3a17,17,0,0,1,1.39,1.43A45.65,45.65,0,0,0,139.5,145a16.55,16.55,0,0,1,1.42,1.48c1.83,2.59,4.54,4.28,6.67,6.56.51.46,1,.95,1.45,1.45,5.89,5.93,11.76,11.86,17.74,17.69,7.5,7.71,15.21,15.21,22.8,22.84,1,1.21,2.22,2.28,3.36,3.38,3.61,3.56,7,7.31,10.75,10.72q4.17,4.37,8.54,8.55a10.65,10.65,0,0,1,1,.94c2.1,2.31,4.36,4.46,6.6,6.63,2.94,3.09,6,6.05,9,9.08,3.69,3.82,7.55,7.47,11.28,11.24a8,8,0,0,1,1,1c1.15,1.39,2.5,2.6,3.78,3.88a5.75,5.75,0,0,1,1.7,3c-1.47,5.48-5.34,9.48-8.7,13.73-2,2.51-4.46,1.6-6.45-.45s-3.49-4.45-5.27-6.64a10.11,10.11,0,0,0-5.62-3.91,6.15,6.15,0,0,0-6.34,2,5.18,5.18,0,0,0-.66,6.49c3.85,6,7.88,12,13.65,16.38,5.14,3.89,13.82,2.32,19.12-3,2.72-2.73,4.53-6.14,6.76-9.24,1.24-1.71,2.14-3.86,4.67-4.13,3.9,1.81,5.57,6.13,9.2,8.24a11,11,0,0,1,1.54,1.26c.77.72,1.49,1.5,2.25,2.23s1.49,1.46,2.25,2.18a24,24,0,0,0,3.82,3.36,7.43,7.43,0,0,1,1,.87c1.54,2.19,4,3.36,5.8,5.31a27.53,27.53,0,0,0,2.41,2.3,36.1,36.1,0,0,1,7.37,7,46.62,46.62,0,0,0,4.6,4.12c-.07-.2-.23-.22-.33-.34a34.17,34.17,0,0,1-4.29-3.84,57.66,57.66,0,0,0-9-9.05,52.88,52.88,0,0,1-5.88-5.32,33.12,33.12,0,0,1-2.37-2.94,6.79,6.79,0,0,0-2.08-2.12,11.46,11.46,0,0,1-2.18-2.22,28.76,28.76,0,0,0-3.91-4.27c-3.08-3.39-6.52-6.43-9.34-10.06-1-4.09-2.56-7.63-7.35-8.38-1.5-.62-2.52-1.92-3.88-2.74a6.57,6.57,0,0,1-1-.89,12.25,12.25,0,0,0-3.21-3.25,37.68,37.68,0,0,1-4.14-4.24,52.56,52.56,0,0,0-4.43-4.77c-.48-.45-.92-.92-1.36-1.39a22,22,0,0,0-3.34-3.05c-3.73-2.75-6.36-6.59-9.66-9.77a72.24,72.24,0,0,0-9.92-11,68.5,68.5,0,0,0-7.68-7.36,6.76,6.76,0,0,1-.82-1.09c-1.53-2.63-4.13-4.2-6.25-6.23a18.62,18.62,0,0,1-2-1.76,16.09,16.09,0,0,1-1.56-2.1,14.42,14.42,0,0,0-3.09-3.29c-5.55-6.31-11.58-12.16-17.48-18.13-2.65-2.72-5.36-5.38-8.07-8a19.72,19.72,0,0,1-1.41-1.48c-2.3-3.16-5.31-5.64-8-8.46-2.59-3.91-6.47-6.53-9.76-9.74a7.78,7.78,0,0,0-2.27-2.3c-2-2-4.09-3.92-6-6a10.84,10.84,0,0,0-3.6-3.89,15.64,15.64,0,0,1-4.19-4.12,9.4,9.4,0,0,0-2.37-3.55,10.08,10.08,0,0,1-.86-.87,17.76,17.76,0,0,0-2.72-2.48,10,10,0,0,1-1.34-1.34,13.4,13.4,0,0,0-3.66-3.46,16.62,16.62,0,0,1-4.07-4,6.89,6.89,0,0,0-2.06-2.17,9.28,9.28,0,0,1-2-2.22,6.2,6.2,0,0,0-2.14-2.12c-2.66-2.51-5-5.37-7.71-7.79-2.7-3.61-6.36-6.33-9.23-9.8a10.83,10.83,0,0,0-3.58-3.73,16.63,16.63,0,0,1-2.11-1.62A19.51,19.51,0,0,1,82,80.12c-2.32-3.18-5.35-5.7-7.9-8.66-1.34-1.55-3.85-2.7-2.93-5.53,6.52-5,14.6-4.64,22.09-6.28.79-.17,1.59-.31,2.38-.46,6.77,4.24,11.2,11,17.42,15.89,1.16.91,2.18,2,3.31,3,.87.75,1.71,1.53,2.54,2.33q4.8,4.92,9.75,9.68c2.14,1.86,3.9,4.12,6.17,5.83a7.91,7.91,0,0,1,1,.83c1.13,1.27,2.52,2.26,3.73,3.44.76.73,1.48,1.49,2.24,2.22,1.19,1.21,2.35,2.45,3.65,3.56a8.35,8.35,0,0,1,.95.93c3,2.85,5.45,6.16,9,8.33,2.65,2.15,4.91,4.71,7.35,7.07a103.91,103.91,0,0,0,8.71,8.34c2.52,2.84,5.56,5.12,8.3,7.72,8.39,8.22,17.27,15.93,25.67,24.14,4.75,4.77,10,9.07,14.47,14.07a9.67,9.67,0,0,1,.9,1c.34,1.09,1.33,1.73,1.89,2.67,1.22,4.78,2.6,9.52,3.58,14.35.58,2.85,1.59,4.75,4.63,5.62s4-1.64,5.58-3.07c.62-.55,1.15-1.18,1.72-1.78,2.48-.62,3.57,1.53,5.19,2.61.81.77,1.55,1.6,2.36,2.36s1.59,1.56,2.39,2.33c6.94,5.69,13,12.37,20,18,3.83,4.15,8.25,7.69,12.25,11.66,1.09,1.38,2.47,2.49,3.68,3.75,1.76,1.63,3.21,3.59,5.35,4.8.36.3.58.72.91,1a4.59,4.59,0,0,0-1.34-1.4c-1.93-1.13-3.27-2.92-4.88-4.4-.92-1-1.91-1.84-2.83-2.8-4-4.57-9.12-8.05-13-12.74a6.76,6.76,0,0,1-1.11-.75c-1-1.16-2-2.34-3.13-3.46-4.23-4.67-8.28-9.51-13.33-13.36a9,9,0,0,1-1.35-1.48,11.31,11.31,0,0,0-4-4.14c-1.27-2.13-4.53-3-4.09-6.2,7-10.85,14.08-21.66,21-32.55,7.14-11.19,14.35-22.33,23.38-32.14,5.21,1.8,8.65,6.07,12.87,9.25,1.6,1.2,3.07,2.56,4.67,3.75a7.84,7.84,0,0,1,1.15.7c1.19,1,2.24,2.09,3.38,3.13.5.43,1,.9,1.44,1.37,2.06,2.07,4.37,3.86,6.46,5.9,7.24,6.56,14.61,13,21.71,19.66a57.58,57.58,0,0,0,4.3,4c1.34,1.38,2.68,2.76,4.13,4a23.38,23.38,0,0,1,2.85,2.69c1.64,2.17,4.09,3.43,6,5.27,2.85,2.89,5.64,5.85,9.26,7.84a6.58,6.58,0,0,1,1,.93c4.14,5.41,9.56,9.49,14.61,13.95.7.57,1.46,1.1,2.15,1.7,3.46,3,6.68,6.27,10,9.45a23.94,23.94,0,0,0,3.16,2.61c4.16,5.22,5.15,11.82,7.75,17.72.87,2,1.6,4,2.33,6,.45,1.22.49,2.94,1.94,3.29,1.81.44,2.39-1.44,3.33-2.5,1.74-2,2.61-4.72,5.39-5.69.88-.21,2.65.29,1.21-1.7-.58-.79-1.23-1.52-1.83-2.29-1.84-4.66-1.95-9.72-3.54-14.46-1.11-3.27-2.54-6.12-5.75-7.75-1.6-1.12-3.39-.92-5.17-.7-1.79.56-3.57,1.23-5.5.81-4-2.86-7.13-6.67-11.14-9.49a10.16,10.16,0,0,1-1.83-2,16.84,16.84,0,0,0-3.9-4.26c-2.39-1.91-4.73-3.86-7.06-5.84-4.89-4.43-10.48-7.93-15.78-11.8a37.25,37.25,0,0,0-4.14-4.38c-2.89-3.16-6.5-5.44-9.9-8-7.71-6.8-15.67-13.31-23.61-19.83-4.08-3.19-7.72-6.94-12.22-9.6a16.87,16.87,0,0,1-2.24-1.6c-4-3.17-7.32-7.06-11.24-10.31-1.36-1.13-2.8-2.38-2.74-4.46a68.94,68.94,0,0,1,16-14.79c3-.61,4.2,2.34,6.44,3.23,5.11,3.62,9.38,8.24,14.35,12a5.69,5.69,0,0,1,1,.81c-.07,0,.09-.12.05-.17a8.65,8.65,0,0,1-1.1-.71c-5.71-4.23-10.46-9.46-15.55-14.32-.94-1-2.14-1.78-2.24-3.32C328.28,92,350.61,82,374.41,74.87c10.42-3.13,20.83-5.35,31.65-4.79,14.89.77,28.71,4.34,38.75,16.65a4.8,4.8,0,0,1,1.31,3c-1,1.18-2.15.71-3.31.41a5.74,5.74,0,0,1-2.41-1.28c-.29-.21-.28-.76-.8-.75.4.23.6.65.94,1a18.59,18.59,0,0,0,2.3,1.37c3.17,3.06,6.5,6,9.08,9.59,5.57,9,6.36,19.37,7.74,29.49.53,3.86,2,7.82.34,11.79-4,1.65-6.32-1.79-9.31-3.17-5-2.87-9.55-6.4-14.06-9.47,3.95,2.26,7.09,6,10.89,8.87a7.92,7.92,0,0,1,1.16.75c2.73,2.75,5.9,5,8.8,7.55a8.15,8.15,0,0,1,3,4.24,95.38,95.38,0,0,1-3.85,27.64c-4.28,1.28-6.3-2.77-9.5-4-2.66-2.74-3-6.5-4.32-9.84-1.19-3.07-2-6.29-3.63-9.18-3.52-6.12-8.14-6.71-13-1.62a4.45,4.45,0,0,1-1.55,1.18c-2.83-.26-3.44-3.53-5.88-4.32a23.53,23.53,0,0,1-2.51-2.17,34.14,34.14,0,0,0-4.2-3.95,70.56,70.56,0,0,1-6.09-5.1c-5.66-4.44-10.75-9.55-16.55-13.81-2.32-2.8-5.64-4.46-8.18-7-1.6-1.58-3.56-2.71-5.22-4.21-5.13-4-9.85-8.43-15.4-11.82A43.3,43.3,0,0,0,355.52,98s-.29.1-.29.1.21.25.25.28a41.31,41.31,0,0,0,5.12,5.74c1.35,1.43,2.73,2.83,4.16,4.19s2.78,2.84,4.25,4.18c4.38,4.7,9.31,8.85,13.67,13.56a29.53,29.53,0,0,0,5.19,5.11c4.63,3.2,8,7.87,12.66,11a23.68,23.68,0,0,0,5.18,4.28c6,6,12.93,11,19.19,16.75,2.75,4.94,3.53,10.57,5.6,15.76a3.92,3.92,0,0,1-.21,3.79c-2.22,1.65-4.13.24-6-.72-3.57-1.8-6.95-3.95-10.46-5.87-5-2.74-5.19-2.61-5.25,3.32-.13,13,5.42,23.82,13.14,33.78a27.46,27.46,0,0,0,2.27,2.66c1.51,1.49,2.61,4.38,4.76,4,2.72-.51,2.83-3.79,3.6-6.07,1.78-5.27,1-10.54-.31-15.77-.83-3.22-1.82-6.41-2.65-9.64-.54-2.11-1.15-4.29,1.17-5.87,7-1.13,13.73.36,20.48,1.87a5.51,5.51,0,0,1,3.79,3c-4.44,15.88-11.19,30.93-18.13,45.74a418.45,418.45,0,0,1-32.46,58c-4.44,6.54-8.1,13.61-13.5,19.48-2.34,1-3.56-.75-4.89-2.05-1.49-1.47-2.75-3.18-4.53-4.36a23,23,0,0,1-2.88-2.79c-2.68-2.6-4.85-5.69-7.68-8.16a9,9,0,0,0-1.21-1.09c.62.46,1.07,1.09,1.68,1.56,2.62,2.38,4.69,5.27,7.22,7.75,1,.9,1.74,2,2.65,3,2.54,3.33,6.79,5.54,6.85,10.49-5.19,6.93-10.36,13.87-15.62,20.75a8.44,8.44,0,0,1-2.41,1.57c-1.78,1-3.11-.28-4.58-.89a6.61,6.61,0,0,1-2.28-1.59c-1.37-1.25-2.95-2.24-3.82-3.17a40.13,40.13,0,0,0,3.95,3.63c.65.61,1.19,1.33,1.83,1.94,1.12,1.29,2.9,2.15,2.76,4.25-13,16.07-27,31.26-41.35,46.1-10.56,10.92-21.27,21.69-33,31.37a4.38,4.38,0,0,1-3.09-.81,11.33,11.33,0,0,1-2.85-2.54,21.47,21.47,0,0,0-2.24-2.87,34,34,0,0,0-2.83-2.39,5.9,5.9,0,0,1-.86-1c-3.71-4-8.11-7.3-11.93-11.19-.79-.79-1.52-1.62-2.27-2.44a22.21,22.21,0,0,1-1.58-2.07,9.19,9.19,0,0,0-4.35-3.6,6.06,6.06,0,0,1-1.09-.79A79,79,0,0,0,246,376a25.11,25.11,0,0,1-6-5.95,10.92,10.92,0,0,0-3.57-3.74,9,9,0,0,1-1.09-.73c-1.5-1.31-2.93-2.69-4.31-4.12-3.07-2.93-5.87-6.15-9.29-8.72a11.15,11.15,0,0,1-1.73-2c-1.54-1.47-3.19-2.83-4.63-4.41A7,7,0,0,1,214.2,345a6.57,6.57,0,0,0,1.18,1.44,44.07,44.07,0,0,0,4.24,4,14.44,14.44,0,0,0,3.18,3.3c2.85,2.22,5.17,5,7.79,7.46,1.6,1.76,3.39,3.33,4.92,5.16a26.9,26.9,0,0,0,2.08,2.32c.58.63,1.18,1.24,1.81,1.82,6.46,6.41,12.57,13.16,19.08,19.52,1.32,1.45,2.72,2.84,4.12,4.21,1,1.08,2.08,2.16,3.16,3.19s2.14,2.14,3.24,3.17c3.09,2.91,5.45,6.49,8.68,9.26a6.77,6.77,0,0,1,1,.92c1.92,2.84,4.61,5,6.94,7.42,1,1.45,2.9,2.47,2.39,4.69-13.28,11.75-26.83,22.86-46.41,20.05-8.05-1.15-14.66-5.58-20.52-10.49-19.62-16.44-36.63-35.52-52.27-55.68-4.79-6.17-10.33-12.1-13.47-19.52-2.5-4.92-6.53-8.56-10.31-12.4-10.57-13.58-20.26-27.79-29.57-42.24q-14.22-22.09-26.92-45.15a11.42,11.42,0,0,1-1.68-4.61c1.93-.67,3.12.77,4.54,1.58A130,130,0,0,1,106,269.06c9.63,8.37,19.11,16.88,27.57,26.46a14,14,0,0,0,2.93,2.67c2.78,2.92,5.84,5.53,8.71,8.36a53.84,53.84,0,0,0,4.32,4.47s.14.24.14.24a3,3,0,0,0-.16-.3c-1.35-1.32-2.72-2.59-3.95-4-2.67-2.84-5.69-5.32-8.37-8.16-10.18-10.47-20.72-20.57-30.81-31.13-6-6.88-12.86-12.83-19.13-19.4a8.84,8.84,0,0,0-2.14-2.38c-1.24-1.41-2.66-2.65-3.87-4.09a15.39,15.39,0,0,0-2.42-3.5A13.26,13.26,0,0,0,76.94,236q-7.84-14.9-14.2-30.48a235.42,235.42,0,0,1-14.27-50.15,31.91,31.91,0,0,1-.53-7.42c2.3-.78,3.24,1.05,4.28,2.39,2.31,3,4.87,5.73,7.27,8.62a10.8,10.8,0,0,1,1.27,1.59,14.94,14.94,0,0,0,2.85,3.58c.77.78,1.53,1.57,2.25,2.39,1,1.12,1.66,2.6,3.2,3.2a3.65,3.65,0,0,1,1.47,1.42c.74,2.17-.2,4.19-.56,6.26-.4,2.28-.76,4.56,0,6.81,1.27,3.69,3.85,4.58,7.19,2.53,1.52-.93,2.82-2.3,4.81-2.21,3,1.39,5.55,3.15,6.91,6.29-.38,5-3,9.85-1.7,15.11a5.24,5.24,0,0,0,.87,2.66c4.72-1.86,6.64-7.6,11.69-9.06,6.57,3.37,11.39,8.95,16.94,13.6,5.71,4.77,10.85,10.18,16.57,14.94a16,16,0,0,1,2.58,2.42c2.9,3,6.14,5.74,9.06,8.78,1.12,1.31,2.51,2.44,2.91,4.25-3.5,16.13,2.86,30,10.15,43.6,2.32,4.32,5.45,7.94,10.16,9.9,7.85,3.26,16.06-.05,18.53-8.15,2.29-7.48,3.33-15.28,1.91-23.11A204.45,204.45,0,0,0,183.43,245a26.31,26.31,0,0,0-4.25-9c-5.22-6.73-12.44-7.71-19.23-2.54-3.29,2.5-6.22,5.52-10.22,7a4.43,4.43,0,0,1-3.26-1.58c-3.5-4.43-7.32-8.59-11.15-12.75-.89-.69-1.63-1.55-2.52-2.26-5.8-7-11.93-13.63-18.17-20.21a41.6,41.6,0,0,0-7.34-7.6,22.38,22.38,0,0,1-2.27-2.4c-1.53-1.88-3.16-3.66-4.75-5.48-1.61-2-1.62-5.25-4.74-6.09a33,33,0,0,1-8-7.13c-.62-4.06,1.38-7.78,1.55-11.74.23-5.22-.54-5.74-5.5-4.4-2.94.79-5.3,2.7-8.14,3.6-2.2-.18-3.41-1.88-4.84-3.22a143.29,143.29,0,0,0-18-14.82,19.93,19.93,0,0,1-2.27-1.46C49.07,142.26,48.36,140.66,46.68,140.55Z" transform="translate(5.1 5.09)"/><path class="cls-3" d="M106.78,59.24a60.05,60.05,0,0,1,41.34,13.44c25.21,20.18,46,44.07,61,72.77,3.72,7.14,7.15,14.55,9,22.5-4.79-.13-6.72-4.25-9.7-6.91-.5-.47-1-1-1.47-1.47-6.7-6.63-13.12-13.56-20.19-19.81-1.09-1.09-1.77-2.54-3-3.48a9.88,9.88,0,0,1-.92-.91,10.15,10.15,0,0,0-3.87-3.18c-2-1.08-3-3.15-4.59-4.68-3.74-3.87-7.84-7.35-11.62-11.17a8.7,8.7,0,0,1-1-1c-3.64-4-7.5-7.7-11.36-11.44a49.14,49.14,0,0,0-3.69-3.67,9.91,9.91,0,0,1-1-.87c-1.4-1.38-3.18-2.29-4.54-3.72-2.66-2.64-5.3-5.3-8-7.92-2-2.09-4-4.17-6.14-6.12-2.23-2.28-4.47-4.55-6.79-6.74-.51-.47-1-1-1.48-1.47a46.7,46.7,0,0,0-7.65-6.14C108.39,65.44,106.35,63,106.78,59.24Z" transform="translate(5.1 5.09)"/><path class="cls-11" d="M134.22,86.9l8.08,7.87a3.18,3.18,0,0,1-.64,1.15c-1.17.67-1.77,2.06-3.15,2.45a4.18,4.18,0,0,1-3.72-1.25l0,0a21.85,21.85,0,0,0-6.7-6.21,71.75,71.75,0,0,1-10.27-9.9c.94-2.25-.45-2.1-1.92-1.86-7.23-6.2-14.55-12.31-20.29-20,3.72-.12,7.44-.56,11.15.06,2.36,6.5,9.64,8.34,13.11,13.79,0,.73.58.77,1,1a29.31,29.31,0,0,1,7.13,6.88C128.78,84.28,131.15,85.94,134.22,86.9Z" transform="translate(5.1 5.09)"/><path class="cls-12" d="M58.92,160.2,47.94,148c-1.43-2.3-.59-5-1.26-7.41,2.77-3.7,2.63,1.81,4.37,1.37.36.89.35,2.35,2,1.25,8.5,4.79,15,12,22.25,18.34.26,4.44-2.2,7.35-5.5,9.79L68,170.75c-1.25-1.07-1.24-3.21-3.16-3.69l-1.92-2c-.22-1.79-2.45-2.4-2.53-4.28a1.92,1.92,0,0,1,.38-1.89c1.38-.61,2.39.44,3.55.81a4.2,4.2,0,0,0-2.69-1.57C60,157.87,60.11,159.87,58.92,160.2Z" transform="translate(5.1 5.09)"/><path class="cls-13" d="M82.94,91.07c-4.51-4.11-9.28-8-13.1-12.77A1.37,1.37,0,0,1,69.72,77a2.24,2.24,0,0,1,2.3-.65c.31.21.69.47.41-.32-1.28-.69-2.52.38-3.79.08a7.83,7.83,0,0,1-1.9-.94,3.12,3.12,0,0,1-2.79-2c-1.22-1.76.39-2.8,1-4.09,1.81-1.52,3.67-2.93,6.17-3.09,3.31,5.21,9.31,8.13,11.9,13.95.94,2.27-3.06,4-.7,6.41a8.18,8.18,0,0,1,1.25,2.35,2.77,2.77,0,0,1-.17,2Z" transform="translate(5.1 5.09)"/><path class="cls-14" d="M81.94,241a10.14,10.14,0,0,1,4,4.07,2.75,2.75,0,0,0,1.84,2c6.41,6.6,13.76,12.3,19.24,19.81,1.06,2.14,0,2.83-2,3L90.9,255.22c-1.53-1.58-3-3.24-5.1-4.1-1.27-1.12-3-1.93-2.83-4.05-.64-1.37-.69-3-2.12-4l.05.06C80.42,242,80.22,241,81.94,241Z" transform="translate(5.1 5.09)"/><path class="cls-15" d="M209.09,159.85l9.07,8.1c.3.68.6,1.36.89,2,.54,1-.46,2.15.11,3.2.6,1.55,2.45,2.89.83,4.82-5.31-4.67-10.64-9.32-15.23-14.73a1.92,1.92,0,0,1,.57-1.12C206.59,161.4,207.52,160.1,209.09,159.85Z" transform="translate(5.1 5.09)"/><path class="cls-16" d="M303,141c-6.07-4.49-12.12-9-17.37-14.51,1.18-.84,1.83-2.42,3.53-2.55l14.95,13.87C304.79,139.18,304,140.09,303,141Z" transform="translate(5.1 5.09)"/><path class="cls-17" d="M447.73,173.07l8.95,4.69c.58,3.44-1.22,6.42-1.86,9.63L451,185.72C448.35,181.92,446.17,178,447.73,173.07Z" transform="translate(5.1 5.09)"/><path class="cls-18" d="M457,147a49.17,49.17,0,0,1-9.23-7.93c.46-1.21,1.61-1.49,2.62-1.95l.64-.2,9,4.39a4.7,4.7,0,0,1,.75,3.66C459.57,145.81,457.86,145.63,457,147Z" transform="translate(5.1 5.09)"/><path class="cls-19" d="M382,303.18c3.61,1.66,5.13,5.78,8.74,7.43,0,2.06-1.8,2.94-2.79,4.35l-7.82-10C380.36,304,381.2,303.61,382,303.18Z" transform="translate(5.1 5.09)"/><path class="cls-20" d="M443,89.1l3.14.66,3,3.2c-.16.63.16.93.73,1.06,1.15,1.86,2.79,3.55,2.07,6-4.17-2.08-7-5.66-10.15-8.92A3.11,3.11,0,0,1,443,89.1Z" transform="translate(5.1 5.09)"/><path class="cls-21" d="M145,344.76c5.29,2.19,8.23,6.95,11.8,11,.64.72-.75,1.16-1.49,1.42C150.68,354.05,148.15,349.16,145,344.76Z" transform="translate(5.1 5.09)"/><path class="cls-22" d="M243,199.16l-4.76-3.83a6.13,6.13,0,0,1,3.05-4.19l5.09,5.71C245.76,198.44,244.42,198.9,243,199.16Z" transform="translate(5.1 5.09)"/><path class="cls-23" d="M308.15,106.65a4.78,4.78,0,0,1,2.81,2.46c1.77,3.17,1.77,3.17-.33,4.09-2.41-.58-3.54-2.88-5.47-4.1C305.56,107.56,306.78,107,308.15,106.65Z" transform="translate(5.1 5.09)"/><path class="cls-24" d="M291,417.09c1.21.08,1.78,1,2.4,1.83-1.59,1.58-2.76,3.75-5.39,3.88L285,419a2.17,2.17,0,0,1,1.84-1.6C288.19,417.07,289.68,418.1,291,417.09Z" transform="translate(5.1 5.09)"/><path class="cls-25" d="M365.91,335.24l4,2c.36,1.94-1,3-2.14,4.17l-3.84-3.4A2.63,2.63,0,0,1,365.91,335.24Z" transform="translate(5.1 5.09)"/><path class="cls-26" d="M457,147c.21-1.24-1.53-2.7-.06-3.63,1.63-1,2.27,1.64,3.81,1.6a9.2,9.2,0,0,1-.22,5.12Z" transform="translate(5.1 5.09)"/><path class="cls-27" d="M85.8,251.12c2.82,0,4.36,1.54,5.1,4.1q-2-1.23-4-2.45C86.52,252.22,86.16,251.67,85.8,251.12Z" transform="translate(5.1 5.09)"/><path class="cls-28" d="M220,178c.37-2.07-1-3.44-2-5,.3-.93.84-1.45,1.88-1l1.2,3.88c.54,1.21.7,2.23-1.14,2.21Z" transform="translate(5.1 5.09)"/><path class="cls-29" d="M81.94,241c-.34.71-.69,1.41-1,2.12a5.85,5.85,0,0,1-2.08-3.81,1.36,1.36,0,0,1,.3-1.76C80.17,238.62,81.71,239.28,81.94,241Z" transform="translate(5.1 5.09)"/><path class="cls-30" d="M65,69c-.35,1.37-.7,2.73-1,4.09l-1-.24C61.72,70.57,63.85,70.06,65,69Z" transform="translate(5.1 5.09)"/><path class="cls-31" d="M219.94,178.08l1.14-2.21c1.23,1.18,1.09,2.88,1.6,4.33A4.36,4.36,0,0,1,219.94,178.08Z" transform="translate(5.1 5.09)"/><path class="cls-29" d="M80.85,243.07c2.32.48,2.83,1.91,2.12,4A6.29,6.29,0,0,1,80.85,243.07Z" transform="translate(5.1 5.09)"/><path class="cls-32" d="M219.88,172c-.62.35-1.25.69-1.88,1-1.84-1.76.76-2,1.05-3A1.73,1.73,0,0,1,219.88,172Z" transform="translate(5.1 5.09)"/><path class="cls-33" d="M79.12,237.56l-.3,1.76a5,5,0,0,1-1.88-3.3C78.06,236,78.91,236.32,79.12,237.56Z" transform="translate(5.1 5.09)"/><path class="cls-34" d="M449.85,94c-.72.24-1.68,1.16-2.15.25-.57-1.11.7-1.11,1.42-1.31Z" transform="translate(5.1 5.09)"/><path class="cls-2" d="M338.91,241.16c.25,16.81-7,30.66-17.66,42.84-7.89,9.05-20.44,6-25.68-4.72-10.57-21.7.13-40.57,10.89-53.78,5.14-6.32,12.7-9.36,21.14-6.22s10.65,10.35,11.29,18.39C339,238.83,338.91,240,338.91,241.16Z" transform="translate(5.1 5.09)"/><path class="cls-2" d="M149.21,239.75c3.37-2.66,6.74-5.34,10.12-8,7.41-5.82,17.91-4.2,22,4.7,7.68,16.49,12.18,33.83,7.28,52.15-3.32,12.41-18.66,15.9-27.29,5.68-10.33-12.22-15.7-26.84-16.35-43-.12-2.9,1.32-5.46,1.83-8.22C146.9,241.44,147.48,240.18,149.21,239.75Z" transform="translate(5.1 5.09)"/><path class="cls-2" d="M251,251.63c6.58,1.13,8.05,2.76,8.42,9.28.6,1.92.22,3.41-1.83,4.17-3.09,3.11-4.86,7.12-7.33,10.65-7.92,11.34-20.35,12-29.2,1.55-2.68-3.18-5.25-6.46-7.76-9.77-3.12-4.12-3-8.28.14-11.21a8.28,8.28,0,0,1,11.71.53,74.7,74.7,0,0,1,6.84,8.55c2.08,2.78,3.84,3.37,5.95-.05,2.52-4.09,5.32-8,8-12a3,3,0,0,1,2.83-2.2A15.54,15.54,0,0,1,251,251.63Z" transform="translate(5.1 5.09)"/><path class="cls-2" d="M430,183c1.45,6.09,2.72,12.22,4.39,18.24,2.11,7.63-.69,14.3-3.56,21-.75,1.76-1.82,1.09-2.69.25C415,209.64,406,194.93,406.86,175.71c.17-3.67.93-5,4.95-2.64,6,3.46,11.69,7.52,18.24,10Z" transform="translate(5.1 5.09)"/><path class="cls-2" d="M447.73,173.07l3.3,12.65L430,183l.09.09Q426.93,173,423.8,162.9c-3.24-4.49-3.13-6.24.57-9.47,1.75-3,3.24-6.13,7.74-5.69,4.29.43,6.74,2.71,8.66,6.36C443.94,160.13,444.75,167,447.73,173.07Z" transform="translate(5.1 5.09)"/><path class="cls-2" d="M415.93,242.06c-2,2.82-4.07,5.61-6.05,8.45a4.42,4.42,0,0,1-3.76,2c-1.39-.06-1.16-1.83-1.58-2.82-3.76-8.82-6.27-18.15-10.66-26.73a18,18,0,0,1-2-2.33c-1.54-3.39-1.39-5.84,3.23-5.8l4.95-1.63a7.67,7.67,0,0,1,2,1.12c.82.51,1.34-.14,1.93-.51a2.72,2.72,0,0,1,2.44,0c4.28,1.21,5.46,4.82,6.37,8.49,1.21,4.86,2.19,9.77,3.27,14.66A4.34,4.34,0,0,1,415.93,242.06Z" transform="translate(5.1 5.09)"/><path class="cls-2" d="M69.77,171.31l5.49-9.79c3.46-3.76,8.47-4,12.83-5.76,2.21-.87,1.77.78,2.13,2,1.71,5.95-1,11.36-1.88,17,.12,5-2.25,8.56-6.77,10.22a19.87,19.87,0,0,1-3.33,2.86c-1.69.92-2.84,3.78-5.46,2-2.47-1.69-4.7-3.44-4.89-6.95C67.67,178.85,69.33,175.2,69.77,171.31Z" transform="translate(5.1 5.09)"/><path class="cls-35" d="M100.09,96.76A37.44,37.44,0,0,1,108,105c.13,1.23,1.34,1.35,2,2l2,2.12c.33.91,1.18,1.32,1.85,1.91l4.16,4.12a13.86,13.86,0,0,0,3.79,3.88l1.2,1.27a10.15,10.15,0,0,0,2.93,2.76l0,.06c1.26,1.12,1.4,3.13,3.12,3.87l3.93,4c1.23,1.65,2.86,3.11,2.64,5.47a2.54,2.54,0,0,1-.81,1.12c-1.22.92-2.74.22-4,.75l-2-2.05c0-2.1-1-3.22-3.14-3.16-5.41-3.6-9.29-8.81-13.94-13.21C106,114.49,100.55,108.68,95,103a2.94,2.94,0,0,1,1.57-1.23c1.93-.3,2.4-1.71,2.55-3.36A2.24,2.24,0,0,1,100.09,96.76Z" transform="translate(5.1 5.09)"/><path class="cls-36" d="M115.39,202.8c6.83,6.21,12.72,13.28,18.59,20.37a1.45,1.45,0,0,1,.26.4c.56,2-1.06,1.93-2.21,2.31,1.49.84,2.11,1.91.87,3.44-5.43-3.27-9.21-8.41-14.08-12.35-6.56-5.32-12.74-11.1-19.08-16.68-.85-2.34.5-4.13,1.48-6,1.27-1.79,2.83-2.58,4.93-1.34l1.86,2.16A24.37,24.37,0,0,0,115.39,202.8Z" transform="translate(5.1 5.09)"/><path class="cls-2" d="M102.26,195l-2.52,5.3c-3.27,3.23-6.5,6.5-9.84,9.65-.8.74-2,1.61-3,1.49-1.47-.2-.93-1.9-1.09-2.95-.87-6-.67-11.89,2-17.49,1.56-4.2,4-7.68,8.11-9.73,5.26-.23,3.85,4.42,5.19,7.07C104,190.13,102.72,192.62,102.26,195Z" transform="translate(5.1 5.09)"/><path class="cls-37" d="M187.38,138.83c7.59,6,14.11,13.13,20.77,20.1-.11,2-1.69,2.95-3.08,4l-.31.36a345.88,345.88,0,0,1-25.86-24.21c.14-.16.28-.33.41-.5,2-1.18,4.17,1.13,6.17-.3A3.63,3.63,0,0,1,187.38,138.83Z" transform="translate(5.1 5.09)"/><path class="cls-38" d="M193.37,192.85l.86,2c-1.4,2.29-3.3,2.25-5.42,1.18l-23.06-23a2.49,2.49,0,0,1,1.5-1.18c1.4-.42,2.92-.21,4.27-.88l.6-.14a237.4,237.4,0,0,1,17.8,18.37C190.27,191.22,191.78,192.08,193.37,192.85Z" transform="translate(5.1 5.09)"/><path class="cls-39" d="M390.37,123.85A187.25,187.25,0,0,1,407,138c.57,1.69-.49,2.63-1.63,3.54-1.38.72-2.91,1.12-4.3,1.84a1.92,1.92,0,0,1-1.25-.33c-4.75-3.17-8.71-7.25-12.73-11.26-.63-1.32.64-2.23.71-3.39.43-1.39,0-2.94.83-4.25A1.33,1.33,0,0,1,390.37,123.85Z" transform="translate(5.1 5.09)"/><path class="cls-40" d="M336.9,171.25a276.18,276.18,0,0,1-22.07-20.1c.08-.19.16-.39.23-.58a6.43,6.43,0,0,1,2-1.43,6,6,0,0,1,1.15-.4c8.21,6.38,16.26,12.94,23.89,20a2.63,2.63,0,0,1,.32,1.94C340.71,172.09,338.68,170.45,336.9,171.25Z" transform="translate(5.1 5.09)"/><path class="cls-41" d="M168,173l-2.27.09c-6-6-12.52-11.44-17.92-18,.41-1.11,1.52-1.64,2.1-2.61a3.65,3.65,0,0,1,1.1-.81c1.56-.35,2.48,1,3.77,1.39a50.94,50.94,0,0,1,8.48,8.82c-.24.74-.2,1.24.79.91,2.92,2.47,5.9,4.88,8.05,8.11l-.27.25C170.85,172.32,169,171.66,168,173Z" transform="translate(5.1 5.09)"/><path class="cls-42" d="M100.09,96.76,100,99c-3-.17-1.87,2.75-3,4L95,103a79.89,79.89,0,0,1-12-12l.19-.19c.78-.68.52-1.29-.13-1.88l-1-2a7.26,7.26,0,0,1,3-5.13L87,83.18c1.1,1.45,1.86,3.23,3.8,3.86C93.55,90.59,97.77,92.76,100.09,96.76Z" transform="translate(5.1 5.09)"/><path class="cls-43" d="M424.37,153.43c-2.32,3-1.06,6.27-.57,9.47-7.25-4-12.95-10-19-15.51a2,2,0,0,1-.19-2,1.75,1.75,0,0,1,1.15-.67c1.61.45,3.32,3.27,4.79-.2a3.8,3.8,0,0,1,1.13-1.66.82.82,0,0,1,1.16.2,11.84,11.84,0,0,1,4.28,3.92c-.28.83-1.18,1.73-.3,2.53,1.07,1,1.47-.6,2.26-.83C421.28,149.78,423.31,151.08,424.37,153.43Z" transform="translate(5.1 5.09)"/><path class="cls-44" d="M379,210c-5.34-4.64-11.32-8.6-15.27-14.69,2.32-2.21,4.83-3.77,8.18-2.27A34.92,34.92,0,0,1,379,199a8.08,8.08,0,0,0,3.82,4.06l1.27,1.71c.06,3.27-.51,3.48-4.16,1.57-.21-.1-.48-.29-.71-.23s0,.4.21.66a3.19,3.19,0,0,1,.39,1.05A2.21,2.21,0,0,1,379,210Z" transform="translate(5.1 5.09)"/><path class="cls-45" d="M389,125c.08,1.33.89,2.67,0,4-3.15,2.2-4.48-2.15-7.07-2-4.83-4.45-9.88-8.66-14.08-13.74,1-3.89,2.1-4.58,5-2.72a15.62,15.62,0,0,0,4.27,2.35A15.4,15.4,0,0,1,382,117a6.08,6.08,0,0,0,3.75,4.66A5.12,5.12,0,0,1,389,125Z" transform="translate(5.1 5.09)"/><path class="cls-46" d="M105.08,269.81c.81-.89,2-1.5,2-3,8.25,6.89,15.12,15.17,22.8,22.63,2.83,2.75,5.45,5.72,8.16,8.6,0,1.69-.79,1.57-1.88.88q-13.38-12.63-26.76-25.25C108,272.38,106.51,271.11,105.08,269.81Z" transform="translate(5.1 5.09)"/><path class="cls-47" d="M379,205c1.61-1.86,3.64,4.15,5.11-.28,4.62,2.34,8.05,6,11,10.15-3.77,1-3.31,3.41-2,6.1a1.43,1.43,0,0,1-2.09,0l-10.14-9.59c-1-1.32-.54-3.24-1.85-4.42h0A1.39,1.39,0,0,1,379,205Z" transform="translate(5.1 5.09)"/><path class="cls-48" d="M240.76,369c5.82,5.22,11.67,10.39,17.43,15.67,1.27,1.16,3.11,2,3.12,4.16a4,4,0,0,1-2.14,2.55,1.34,1.34,0,0,1-1.23-.36,260.31,260.31,0,0,1-19.87-20.27C238.07,368.79,238.78,367.92,240.76,369Z" transform="translate(5.1 5.09)"/><path class="cls-49" d="M212,219.06a61.55,61.55,0,0,1-9-9c-.52-1.8-2.62-2.94-2.17-5.15a2,2,0,0,1,1.92-.55c3.72,1,5,5.08,8.33,6.58a46,46,0,0,1,10,10.93,1.45,1.45,0,0,1,.37,1.06,14.62,14.62,0,0,1-1.51,2.49,2.26,2.26,0,0,1-1,.67,34.74,34.74,0,0,1-7-7.1l.27-.28Z" transform="translate(5.1 5.09)"/><path class="cls-43" d="M151,152v1c-1.14,1.25-2.77.86-4.16,1.27-2.45-2.29-5.29-4.2-7.11-7.13.11-.69-.13-1-.85-.86a29.55,29.55,0,0,1-7.16-7.17c.61-1.46,2.51-.89,3.28-2.1v0c.84-.47.05-2.52,1.92-2a23.28,23.28,0,0,1,6.07,6c1,.93.76,2.51,1.87,3.37C147.35,146.61,150.49,148.23,151,152Z" transform="translate(5.1 5.09)"/><path class="cls-50" d="M96,181.25q-4.05,4.86-8.11,9.73l-6.29-6a30.51,30.51,0,0,0,6.77-10.22Z" transform="translate(5.1 5.09)"/><path class="cls-51" d="M161.92,123.12a35.08,35.08,0,0,1-7-6.79A54.32,54.32,0,0,0,145,107v0a2,2,0,0,1-.31-2.18c1.71-1.38,3.2-3.69,5.79-1.39a76.64,76.64,0,0,0,12.64,11.5l0,0c.68,1.39,1.88,2.62,1.31,4.37a6.19,6.19,0,0,1-1.85,3.57Z" transform="translate(5.1 5.09)"/><path class="cls-52" d="M251.09,201.84a61.75,61.75,0,0,1,14,14A5.57,5.57,0,0,0,268,219a.41.41,0,0,1,.17.61,1.33,1.33,0,0,1-.28,1.71c-2.4.23-3.39-1.83-4.76-3.1-5.42-5-10.72-10.11-16.07-15.19C248.06,201.42,249.71,202.09,251.09,201.84Z" transform="translate(5.1 5.09)"/><path class="cls-53" d="M371.9,193c-2.88.21-5.1,2.81-8.18,2.27l-.05,0a6.82,6.82,0,0,0-4.54-5.77c-2.16-.8-3.65-2.62-5.65-3.65-1.78-1.44-4.3-2.6-2-5.53,1.65-.8,3.09-.24,4.46.7C361.58,184.56,367.2,188.18,371.9,193Z" transform="translate(5.1 5.09)"/><path class="cls-54" d="M277.05,410.75a65.75,65.75,0,0,1-9.27-9.67c1.88-.81.2-3.52,2.28-4.22,4.37,3.92,9.12,7.46,12.77,12.15C281.32,411,279,410.08,277.05,410.75Z" transform="translate(5.1 5.09)"/><path class="cls-55" d="M175.35,126.87c2.35.55,2.21,3.77,4.59,4.29.63,2,2.43,2.83,4,3.86h0a2,2,0,0,1-.65,2.39c-1.21,1-3.09.12-4.18,1.47l-.25.18a32.53,32.53,0,0,1-8.19-7.77,2.61,2.61,0,0,1,.41-1.18c1.11-1,.7-3,2.33-3.69A2.4,2.4,0,0,1,175.35,126.87Z" transform="translate(5.1 5.09)"/><path class="cls-56" d="M143.77,240.09c-3.06-3-6.51-5.53-9.07-9,.59-.82,2.51-1,1-2.81a2.28,2.28,0,0,1,.33-3.07c4.28,3.66,7.75,8,11.2,12.44C147.27,240.19,146.1,241,143.77,240.09Z" transform="translate(5.1 5.09)"/><path class="cls-57" d="M257.6,265.08l1.83-4.17a66.07,66.07,0,0,1,9.67,10l-.15.59c-.53,1.1-.76,2.41-2.13,2.89C263,272,260.37,268.47,257.6,265.08Z" transform="translate(5.1 5.09)"/><path class="cls-58" d="M201,205c1,1.58,2.38,3,2,5.09l-11.17-11c.9-1.89,2.59-2.76,4.42-3.46,2.2,2.47,5.46,4,6.62,7.39C202.26,203.71,201.35,204.1,201,205Z" transform="translate(5.1 5.09)"/><path class="cls-59" d="M377.14,112.93c-1.59,1-2.62.09-3.74-1-2.44-2.27-4.27-1.49-5.55,1.32a13.47,13.47,0,0,1-4.15-4.15c.84-3.66-3.7-4.47-4-7.53.32-.7.68-1.31,1.59-.78C367.22,104,372.13,108.54,377.14,112.93Z" transform="translate(5.1 5.09)"/><path class="cls-60" d="M221,223l0-1.1,10.08,9.79a3.14,3.14,0,0,1,.28,1.17c-.58,1.23-1.83,1.52-2.9,2.07l-.57.16a56,56,0,0,1-9-9c0-.38.05-.76.07-1.14C220.28,224.93,220.35,223.69,221,223Z" transform="translate(5.1 5.09)"/><path class="cls-61" d="M231,233l.13-1.31a7.55,7.55,0,0,1,3,3.23c-.3.91.06,1.16.92.92,1.91,1.43,3.81,2.88,4.72,5.21-.31,2.05,2.47,4.13-.05,6.15-4-4-8.37-7.61-11.83-12.11l.19-.25C229,234.05,230.23,233.93,231,233Z" transform="translate(5.1 5.09)"/><path class="cls-62" d="M310.63,113.2c1.55-1.25-.06-2.75.33-4.09l16,15.16c-.06.77-.16,1.47-1.21.88A106.56,106.56,0,0,1,310.63,113.2Z" transform="translate(5.1 5.09)"/><path class="cls-63" d="M314.83,151.15a28.32,28.32,0,0,1-6.95-6.1c-.1-.66-.43-1-1.13-.79l-3.14-3c.34-1.24,1.56-1.53,2.4-2.24,4.68,2.5,8.29,6.32,12.2,9.77l-.3.37c-.79.8-2,1-2.78,1.8Z" transform="translate(5.1 5.09)"/><path class="cls-64" d="M447,138.72c-5.1-3.43-9.15-8-13.55-12.35C440,128.88,445.32,133.2,451,137l-.21.29C449.75,138.23,448.13,137.79,447,138.72Z" transform="translate(5.1 5.09)"/><path class="cls-65" d="M354,185c2.74,1.41,5.49,2.81,8.23,4.24s3.41,3.41,1.45,6c-4.17-1.63-6.9-4.94-9.71-8.18A1.45,1.45,0,0,1,354,185Z" transform="translate(5.1 5.09)"/><path class="cls-66" d="M267.88,221.28c.09-.57.18-1.14.28-1.7,5.41,3.71,9.89,8.42,14.2,13.31a1.88,1.88,0,0,1-2.52.18C275.68,229.31,270.31,226.79,267.88,221.28Z" transform="translate(5.1 5.09)"/><path class="cls-61" d="M342,171c0-.75.06-1.5.1-2.25a43.63,43.63,0,0,1,10,8.23c-2,1.91-4.87,1.08-7.14,2.16l-4.09-4.09A7.1,7.1,0,0,0,342,171Z" transform="translate(5.1 5.09)"/><path class="cls-67" d="M287,418l-2,1c-2.69-2.39-5.49-4.67-7.33-7.86,1.27-1.48,2.56-.58,3.85-.06,1.45.73,3.16.12,4.6.88,1.09.67,2.17,1.36,2.08,2.88C288.1,416,288.25,417.29,287,418Z" transform="translate(5.1 5.09)"/><path class="cls-68" d="M344.94,179.14c1.2-4.63,4.78-1.36,7.14-2.16a7.28,7.28,0,0,1,3.82,4H351a2.69,2.69,0,0,1-3.35.12A2.84,2.84,0,0,1,344.94,179.14Z" transform="translate(5.1 5.09)"/><path class="cls-69" d="M229.92,362.15a46.88,46.88,0,0,1-8-8.06,2,2,0,0,1,.19-2.6,61.83,61.83,0,0,1,10,9.45C231.71,361.92,230.82,362.05,229.92,362.15Z" transform="translate(5.1 5.09)"/><path class="cls-70" d="M293,298l-7.89-7c-.09-1.23-1.42-2.43-.12-3.71a38.88,38.88,0,0,1,9.24,9.65A1.31,1.31,0,0,1,293,298Z" transform="translate(5.1 5.09)"/><path class="cls-71" d="M342,171c.79,1,2.35,2.13,2.22,3-.26,1.68-2.18.74-3.37,1.05-1.53-1.05-3.14-2-4-3.8C338.41,167.07,340.23,169.6,342,171Z" transform="translate(5.1 5.09)"/><path class="cls-72" d="M361.29,100.84,360,102c.73,1,1,2.1,0,3.13a27.07,27.07,0,0,1-6.08-6.86c-.32-1-.94-2.09.9-2.18C357.13,97.41,359.71,98.44,361.29,100.84Z" transform="translate(5.1 5.09)"/><path class="cls-73" d="M406,145h-1l-.55-.53A2.78,2.78,0,0,1,405,141l2-3,5.87,5c-.31,0-.62,0-.92.06-1.12.85-1.85,2.19-3.28,2.64A2.64,2.64,0,0,1,406,145Z" transform="translate(5.1 5.09)"/><path class="cls-74" d="M389,125c-2.2-2-5.65-2-7.51-4.83-1.07-1.65-.27-2.22.51-3.16,3.21,1.76,5.67,4.44,8.37,6.84Z" transform="translate(5.1 5.09)"/><path class="cls-75" d="M85,81.87A5,5,0,0,1,82,87c-3.27-.75-3.83-2.25-1.31-4.65.82-.79,1.58-1.64,2.37-2.47Z" transform="translate(5.1 5.09)"/><path class="cls-76" d="M151,152a27.44,27.44,0,0,0-7-7c-.62-1-.81-1.83.78-1.94,3.59,3.08,7.38,6,10,10C153.11,154.24,152.24,152.44,151,152Z" transform="translate(5.1 5.09)"/><path class="cls-77" d="M136,225.22c-.69,1.9,4.44,5.08-1.29,5.88l-1.8-1.78c-.77-2.25-1.15-4.43,1.08-6.15Z" transform="translate(5.1 5.09)"/><path class="cls-78" d="M275.15,348.92c-3.91-3.64-7.82-7.28-10.54-12,4.67,2.76,7.84,7.15,11.58,10.92C276.51,348.79,276,349,275.15,348.92Z" transform="translate(5.1 5.09)"/><path class="cls-79" d="M145,105c0,.67,0,1.33,0,2a9.68,9.68,0,0,1-4-3.85c.08-4.58,1.31-5.43,6-4.1l.05,0C148.48,101.77,146.21,103.21,145,105Z" transform="translate(5.1 5.09)"/><path class="cls-80" d="M419.11,148.66c-.77,1.27,2.06,3.75-.74,3.9-2,.11-4-2.29-4.42-4.12-.55-2.31,2.06-1,3.2-1.48A2.82,2.82,0,0,1,419.11,148.66Z" transform="translate(5.1 5.09)"/><path class="cls-81" d="M257.94,391l1.09,0c.74-1,2.23-.94,2.93-2,2.32.5,3.71,2.1,4.82,4a6.1,6.1,0,0,1-4.8,2.07A11.23,11.23,0,0,1,257.94,391Z" transform="translate(5.1 5.09)"/><path class="cls-82" d="M146.91,99c-3.14-.31-5,1.17-6,4.1a3.26,3.26,0,0,1-2-2,2.14,2.14,0,0,1-.34-1.26c1-1.68,1.75-3.57,3.33-4.87l.4-.29Z" transform="translate(5.1 5.09)"/><path class="cls-83" d="M115.39,202.8c-.3.13-.6.38-.89.36-2.45-.21-6.65-5.46-6.49-8.07A24.47,24.47,0,0,1,115.39,202.8Z" transform="translate(5.1 5.09)"/><path class="cls-84" d="M239.76,247.21c.41-2-1.86-4.11.05-6.15l4.19,4.08c.72,1.2,2.18,2.15,1.3,3.88a2.23,2.23,0,0,1-1.29.57c-1.69-.3-2.45-2.23-4.23-2.39Z" transform="translate(5.1 5.09)"/><path class="cls-85" d="M360,105.13c0-1,0-2.09,0-3.13,1.27,2.37,8.63,1.57,3.71,7.15C362.42,107.84,360.7,106.93,360,105.13Z" transform="translate(5.1 5.09)"/><path class="cls-86" d="M145,107c4.37,2,8.54,4.15,9.9,9.32A45.64,45.64,0,0,1,145,107Z" transform="translate(5.1 5.09)"/><path class="cls-87" d="M262,395.09c.93-2.26,2.88-2.11,4.8-2.07l1.32,1.66c1.2,3.26-1.22,3.28-3.26,3.63C263.44,397.64,262.76,396.32,262,395.09Z" transform="translate(5.1 5.09)"/><path class="cls-88" d="M136.14,299l1.88-.88,8.24,8.83a.91.91,0,0,1-1.46.17C141.79,304.5,138.61,302.11,136.14,299Z" transform="translate(5.1 5.09)"/><path class="cls-74" d="M381.93,127c1.63.29,4.67-4,4.82,1.47,0,.18,1.47.33,2.25.49.08,1.43-1.19,1.94-1.91,2.83A16.3,16.3,0,0,1,381.93,127Z" transform="translate(5.1 5.09)"/><path class="cls-89" d="M362.81,336.29c-3.43-1.3-4.3-5.28-7.36-7.05a11.69,11.69,0,0,1,8.33,4.8C363.39,334.76,363.78,335.82,362.81,336.29Z" transform="translate(5.1 5.09)"/><path class="cls-90" d="M196.21,195.62c-.83,2-1.87,3.68-4.42,3.46l-3-3,5.42-1.18C195,194.88,195.75,194.83,196.21,195.62Z" transform="translate(5.1 5.09)"/><path class="cls-91" d="M170.71,131.3c-3.51-2.1-6.17-5.12-8.79-8.18l.18-.27a2.78,2.78,0,0,1,2.78-.49,28.37,28.37,0,0,1,6.59,6.53,2.1,2.1,0,0,1-.39,2Z" transform="translate(5.1 5.09)"/><path class="cls-92" d="M243,199.16a3.72,3.72,0,0,1,3.38-2.31,6.87,6.87,0,0,1,3.8,3.74c.45,1.43-.27,1.6-1.49,1.52S246.3,201,245,201A2.69,2.69,0,0,1,243,199.16Z" transform="translate(5.1 5.09)"/><path class="cls-93" d="M371,292.83a34.42,34.42,0,0,1,8.09,8.11,1.69,1.69,0,0,1-1.33,1.38c-2.85-2.23-4.57-5.44-6.93-8.1A.85.85,0,0,1,371,292.83Z" transform="translate(5.1 5.09)"/><path class="cls-94" d="M285,287.25c-.95,1.27,3,2.38.12,3.71l-2.1-2c-1-2.35-4.08-3.15-4.63-5.89a2,2,0,0,1,.65-1.21Z" transform="translate(5.1 5.09)"/><path class="cls-95" d="M264.84,398.31c.79-1.47,3.34-1.37,3.26-3.63.65.72,1.3,1.45,2,2.17-.73,1.43.42,3.87-2.28,4.23Z" transform="translate(5.1 5.09)"/><path class="cls-96" d="M229.92,362.15a2.65,2.65,0,0,1,2.22-1.21c1.8.86,2.93,2.44,4.17,3.89a2.34,2.34,0,0,1-1.38,2.33C232.66,366.09,231.47,363.94,229.92,362.15Z" transform="translate(5.1 5.09)"/><path class="cls-97" d="M115.92,79.2c.73-1.45,1.71-2.49,3.49-1.82a1.94,1.94,0,0,1,1.34,1.89c-.06,2-1.69,1.58-2.91,1.79A2.94,2.94,0,0,1,115.92,79.2Z" transform="translate(5.1 5.09)"/><path class="cls-98" d="M415.93,242.06c-.89-1.69-.15-3.35.08-5,2.42,1.42,2.92,4,4.44,6.95Z" transform="translate(5.1 5.09)"/><path class="cls-99" d="M271.92,279a3,3,0,0,1-2-1.91c-.79-3.05.69-3,2.84-2.1L275,277.1C275.65,280.41,273.76,279.68,271.92,279Z" transform="translate(5.1 5.09)"/><path class="cls-100" d="M244,249h1a1.56,1.56,0,0,1,2.13-.06,1.88,1.88,0,0,1,.83.26c.62.78,1.51,1.45,1,2.65l-3,1.51-2-2.14A1.68,1.68,0,0,1,244,249Z" transform="translate(5.1 5.09)"/><path class="cls-101" d="M128.11,91c3.59.61,5.67,2.85,6.7,6.21C131.87,95.86,130.26,93.12,128.11,91Z" transform="translate(5.1 5.09)"/><path class="cls-59" d="M347.65,181.13,351,181c.7,1.56,1.05,3.37,3,4l0,2.07C351.63,185.34,348.82,184.11,347.65,181.13Z" transform="translate(5.1 5.09)"/><path class="cls-58" d="M211,211c-4.21.07-4.69-4.89-8-6a.68.68,0,0,1-.23-.74c.1-.24.19-.36.28-.36C206.92,204.89,208.62,208.34,211,211Z" transform="translate(5.1 5.09)"/><path class="cls-83" d="M102.26,195c-.39-2.22.26-4.61-1.1-6.66,2.63.48,3.4,3,5,4.61A4,4,0,0,0,102.26,195Z" transform="translate(5.1 5.09)"/><path class="cls-102" d="M281,413c-1.06-.75-1.72-2.2-3.38-1.85a.57.57,0,0,1-.59-.4c1.4-2.33,3.71-1.64,5.78-1.74a.82.82,0,0,1,.34.74C284,411.83,282,412.1,281,413Z" transform="translate(5.1 5.09)"/><path class="cls-103" d="M245,201c.32-1.29.74-2.09,2.16-.86.84.73,1.74,2.1,3,.47l1,1.25c-1,1.49-2.61,1-4,1.15Z" transform="translate(5.1 5.09)"/><path class="cls-104" d="M240.76,369a3.07,3.07,0,0,0-2.69,1.75,1.49,1.49,0,0,1-1.14-1.5c-1.41-1.34-1.53-2.66,0-4C238.41,366.36,240,367.25,240.76,369Z" transform="translate(5.1 5.09)"/><path class="cls-77" d="M125.7,133.16c1-.5.89-3.24,3.15-1.4,2.07,1.68,1,3.05,0,4.56A8.29,8.29,0,0,1,125.7,133.16Z" transform="translate(5.1 5.09)"/><path class="cls-105" d="M143.77,240.09a3.75,3.75,0,0,0,3.42-2.43l2,2.1-2.36,3.31Z" transform="translate(5.1 5.09)"/><path class="cls-106" d="M284,236.1c2.89-.61,3.65,2.06,5.25,3.44a1.5,1.5,0,0,1-.34,1.8c-2.14-1.29-4.41-2.46-4.84-5.3Z" transform="translate(5.1 5.09)"/><path class="cls-107" d="M275.15,348.92l1-1.12c1.43,1.3,3.06,2.44,3.76,4.37.2.74,0,1-.8.79C276.49,352.93,276.44,350.31,275.15,348.92Z" transform="translate(5.1 5.09)"/><path class="cls-108" d="M279,283c.91,2.29,3.87,3.2,4,6-2.33-1.71-4.94-3.1-6.39-5.78A1.61,1.61,0,0,1,279,283Z" transform="translate(5.1 5.09)"/><path class="cls-109" d="M216.17,345.87l4.56,4.17a2,2,0,0,1-1.75,1,10.94,10.94,0,0,1-4-4C214.83,346,215.13,345.57,216.17,345.87Z" transform="translate(5.1 5.09)"/><path class="cls-110" d="M287,418c0-1.19,0-2.39,1.19-3.16l2.84,2.24C290.19,419.68,288.7,419.36,287,418Z" transform="translate(5.1 5.09)"/><path class="cls-16" d="M272.79,275c-1.52-.07-2.71.3-2.84,2.1l-2.15-2c.32-1.32-.05-2.83,1.07-3.93l.23-.3C270.55,272.06,272.2,273.08,272.79,275Z" transform="translate(5.1 5.09)"/><path class="cls-111" d="M440.07,89.74c-1.36-1.12-3-2-4-4.09a4.25,4.25,0,0,1,4.76,2.44C440.65,88.66,440.6,89.32,440.07,89.74Z" transform="translate(5.1 5.09)"/><path class="cls-112" d="M271.92,279c1.4-.06,2.86,0,3.09-1.94a1.82,1.82,0,0,1,1.79,2c-.45,1.22.55,2.74-.77,3.79A12.45,12.45,0,0,1,271.92,279Z" transform="translate(5.1 5.09)"/><path class="cls-113" d="M258.26,329.78c-2.61-1-4.17-3.13-5.55-5.42C255.46,325.23,256.92,327.44,258.26,329.78Z" transform="translate(5.1 5.09)"/><path class="cls-114" d="M293,298l1.23-1.06,3.83,4c.47.44.44.84-.08,1.22A8.41,8.41,0,0,1,293,298Z" transform="translate(5.1 5.09)"/><path class="cls-115" d="M136.93,135,135,137l-2-6C135.22,131.46,136.14,133.18,136.93,135Z" transform="translate(5.1 5.09)"/><path class="cls-116" d="M288.86,241.34c.11-.6.22-1.2.34-1.8,2.1,1.09,3,3.25,4.86,5.22C291.12,244.89,290,243.18,288.86,241.34Z" transform="translate(5.1 5.09)"/><path class="cls-117" d="M377.8,302.32l1.33-1.38c.95.75,1.9,1.5,2.86,2.24a1.81,1.81,0,0,1-1.87,1.8Z" transform="translate(5.1 5.09)"/><path class="cls-118" d="M405,145c-.05.79-.1,1.59-.16,2.38a11.37,11.37,0,0,1-5-4.3L401,143c2.45-1.51,2.8,1.07,4,2Z" transform="translate(5.1 5.09)"/><path class="cls-119" d="M53,143.18c-.51,2-2.38,2.71-3.52,1.69s1.08-1.87,1.55-2.94Z" transform="translate(5.1 5.09)"/><path class="cls-120" d="M144.8,307.08l1.45-.17c2.09,1.27,3.49,3.21,5,5a.88.88,0,0,1-1.36.16C148.05,310.59,146.09,309.17,144.8,307.08Z" transform="translate(5.1 5.09)"/><path class="cls-121" d="M276,282.87c-.07-1.33-1.32-2.9.77-3.79l2.24,2.79,0,1.1-2.37.22A.62.62,0,0,1,276,282.87Z" transform="translate(5.1 5.09)"/><path class="cls-122" d="M216.17,345.87,215,347c-.87-1.22-4-1.75-2.75-3.21C213.87,342,215,344.84,216.17,345.87Z" transform="translate(5.1 5.09)"/><path class="cls-123" d="M283.05,358c3-.53,3.6,1.62,4.41,3.65Z" transform="translate(5.1 5.09)"/><path class="cls-124" d="M281,413c.71-1.09,1.43-2.17,2.15-3.25,1.11.55,2.37.93,2.92,2.22A8.68,8.68,0,0,1,281,413Z" transform="translate(5.1 5.09)"/><path class="cls-115" d="M129.07,127c-.88.51-1.89,2.37-2.5-.17-.3-1.21-.42-2.46-.62-3.7C127.42,124.06,128.79,125.08,129.07,127Z" transform="translate(5.1 5.09)"/><path class="cls-125" d="M90.77,87c-3.19.6-3.47-1.66-3.8-3.86A7.61,7.61,0,0,1,90.77,87Z" transform="translate(5.1 5.09)"/><path class="cls-126" d="M371,292.83c-.06.46-.11.93-.17,1.39l-5-4.24C368.73,289.57,369.91,291.16,371,292.83Z" transform="translate(5.1 5.09)"/><path class="cls-127" d="M164.07,162.77c-.16,1.3-.72,2.2-2.2,2.15-.51,0-1.1-.15-1-.77.24-1.28,1.37-1.75,2.39-2.29C163.55,162.16,163.81,162.47,164.07,162.77Z" transform="translate(5.1 5.09)"/><path class="cls-128" d="M401,215l-1-1.76c2.16-.25,4.36-.9,6.34.65A2.94,2.94,0,0,0,404,215,2.15,2.15,0,0,1,401,215Z" transform="translate(5.1 5.09)"/><path class="cls-129" d="M362.81,336.29c0-.88-.8-2.12,1-2.25l2.13,1.2-2,2.81C363,337.84,362.94,337,362.81,336.29Z" transform="translate(5.1 5.09)"/><path class="cls-130" d="M382.84,203c-2.84.12-4-1.33-3.82-4.06A7.45,7.45,0,0,1,382.84,203Z" transform="translate(5.1 5.09)"/><path class="cls-101" d="M139,100l-.09,1.19a8.84,8.84,0,0,1-4.12-4.07L138,98C138.82,98.42,139.54,98.9,139,100Z" transform="translate(5.1 5.09)"/><path class="cls-131" d="M279.84,233.07l2.52-.18c1.18.75,2,1.68,1.59,3.21L284,236C282.37,235.41,280.59,235,279.84,233.07Z" transform="translate(5.1 5.09)"/><path class="cls-132" d="M121.77,119c-2.72.13-3.35-1.78-3.79-3.88A8,8,0,0,1,121.77,119Z" transform="translate(5.1 5.09)"/><path class="cls-133" d="M244,249c0,.74-.07,1.48-.1,2.21l-4.13-4C241.72,246.56,242.83,247.85,244,249Z" transform="translate(5.1 5.09)"/><path class="cls-134" d="M447,138.72c.58-2.26,2.26-1.68,3.79-1.48-.14,2.07-1.79,1.64-3.05,1.86A.87.87,0,0,1,447,138.72Z" transform="translate(5.1 5.09)"/><path class="cls-135" d="M138.88,146.28l.8-2.6c.37.2.95.31,1.06.6a2.26,2.26,0,0,1-1,2.86Z" transform="translate(5.1 5.09)"/><path class="cls-136" d="M219,351l1.75-1c.46.49.93,1,1.39,1.45-.06.86-.13,1.73-.19,2.6Z" transform="translate(5.1 5.09)"/><path class="cls-137" d="M193.37,192.85c-2.22-.17-4.29-.48-3.45-3.6A8,8,0,0,1,193.37,192.85Z" transform="translate(5.1 5.09)"/><path class="cls-138" d="M135,137c-.21,2.08-1.83,2-3.28,2.1l-.92-.74C131.81,136.72,133.46,137.05,135,137Z" transform="translate(5.1 5.09)"/><path class="cls-139" d="M379,207c2.73.59,1.82,2.7,1.85,4.42-.78-.27-1.61-.48-1.86-1.43C379,209,379,208,379,207Z" transform="translate(5.1 5.09)"/><path class="cls-140" d="M268.87,271.18c.12,1.44.42,2.93-1.07,3.93l-1-.75C267.13,273.06,266.67,271.26,268.87,271.18Z" transform="translate(5.1 5.09)"/><path class="cls-141" d="M61,159l0,2c-.36.63-.8.69-1.32.17l-.74-1c.1-1.44,0-3,2.06-3.2A1.32,1.32,0,0,1,61,159Z" transform="translate(5.1 5.09)"/><path class="cls-142" d="M235.09,235.85l-1.61,2.28a5.47,5.47,0,0,1-1-1.51c-.35-1.38.79-1.47,1.7-1.69Z" transform="translate(5.1 5.09)"/><path class="cls-143" d="M146.84,154.27c1-1.57,2.66-1.2,4.16-1.27-.2,2-1.72,2-3.17,2.07Z" transform="translate(5.1 5.09)"/><path class="cls-144" d="M64.88,167.06c3.2-.62,2.56,2.07,3.16,3.69C66.33,170.07,65.73,168.46,64.88,167.06Z" transform="translate(5.1 5.09)"/><path class="cls-145" d="M290.12,364.12c2.46.26,3.08,1.41,3.64,3.35C292,366.84,291.23,365.84,290.12,364.12Z" transform="translate(5.1 5.09)"/><path class="cls-133" d="M247.13,248.93,245,249c-.33-1.28-.67-2.56-1-3.85C245.71,245.86,247,246.94,247.13,248.93Z" transform="translate(5.1 5.09)"/><path class="cls-146" d="M306,139c-.13,1.47-1.12,2-2.4,2.24a.54.54,0,0,1-.6-.26l1.11-3.19Z" transform="translate(5.1 5.09)"/><path class="cls-144" d="M59.66,161.15,61,161c.18,1.59,3.39,1.73,2,4.09A9.26,9.26,0,0,1,59.66,161.15Z" transform="translate(5.1 5.09)"/><path class="cls-147" d="M298,302.11c0-.41.05-.82.08-1.22,1.25.86,3.07,1.28,2.92,3.5C299.18,304.4,298.68,303.13,298,302.11Z" transform="translate(5.1 5.09)"/><path class="cls-148" d="M333.06,130.18c1.26.63,2.57,1.18,2.72,3-1.78,0-2.23-1.35-3-2.26C332.68,130.83,332.93,130.47,333.06,130.18Z" transform="translate(5.1 5.09)"/><path class="cls-149" d="M237,365.3c-.28,1.32-.68,2.63,0,4a2.54,2.54,0,0,1-2-2.1,2.77,2.77,0,0,1,1.38-2.33A.65.65,0,0,1,237,365.3Z" transform="translate(5.1 5.09)"/><path class="cls-30" d="M70,77c-.07.43-.13.87-.19,1.3a4.77,4.77,0,0,1-3.1-3.17L69,75A2.4,2.4,0,0,1,70,77Z" transform="translate(5.1 5.09)"/><path class="cls-150" d="M440.07,89.74l.8-1.65,2.11,1a2.26,2.26,0,0,1-1.21,2.05Z" transform="translate(5.1 5.09)"/><path class="cls-151" d="M268,219c-2.28.22-3.18-.89-2.94-3.09A5.77,5.77,0,0,1,268,219Z" transform="translate(5.1 5.09)"/><path class="cls-152" d="M325.71,125.15l1.21-.88c1.05.2,1.52,1,2,1.82.21.82,0,1.18-.91.89Z" transform="translate(5.1 5.09)"/><path class="cls-153" d="M203.05,203.9c0,.37,0,.73-.05,1.1h-2c-1.51-2.62.84-1.68,1.83-2A2.53,2.53,0,0,1,203.05,203.9Z" transform="translate(5.1 5.09)"/><path class="cls-132" d="M125.9,123.05c-1.94.1-3.05-.68-2.93-2.76C124.43,120.69,125.14,121.89,125.9,123.05Z" transform="translate(5.1 5.09)"/><path class="cls-154" d="M306.75,144.26c.76-.8,1.73-1.85,2.57-.46.54.9-.75,1-1.44,1.25Z" transform="translate(5.1 5.09)"/><path class="cls-155" d="M279.15,353l.8-.79c.95.52,2.47,1.28,1.43,2.29S279.6,354,279.15,353Z" transform="translate(5.1 5.09)"/><path class="cls-29" d="M87.82,247c-.68.11-.75,1.84-1.8.79-.8-.79-.54-1.82,0-2.75A1.9,1.9,0,0,1,87.82,247Z" transform="translate(5.1 5.09)"/><path class="cls-156" d="M262,389c-.12,1.91-1.45,2.06-2.93,2,.07-1.45,1-2,2.28-2.14A.65.65,0,0,1,262,389Z" transform="translate(5.1 5.09)"/><path class="cls-157" d="M354.77,96.09l-.9,2.18c-.8-.87-2.48-1.57-1.4-3C353.06,94.51,354.27,95,354.77,96.09Z" transform="translate(5.1 5.09)"/><path class="cls-158" d="M391,221l2.09,0c.86.44.87,1.21.8,2A3.84,3.84,0,0,1,391,221Z" transform="translate(5.1 5.09)"/><path class="cls-159" d="M341.24,136.68l-.33,1a12.56,12.56,0,0,1-1.5-1.1c-.09-.09.16-.54.25-.83Z" transform="translate(5.1 5.09)"/><path class="cls-160" d="M249,251.84c-.34-.88-.67-1.76-1-2.65,1.55.15,1.92,1.77,3,2.45Z" transform="translate(5.1 5.09)"/><path class="cls-161" d="M144.78,143.05,144,145c-1.34-1.05-.91-2.55-1-3.92A2,2,0,0,1,144.78,143.05Z" transform="translate(5.1 5.09)"/><path class="cls-162" d="M328.05,127l.91-.89c.79.44,2.17.89,1.2,1.93S328.48,127.94,328.05,127Z" transform="translate(5.1 5.09)"/><path class="cls-163" d="M149.89,312.12l1.36-.16c.79.52,2.22,1.52,1.44,2C151.41,314.79,150.69,313,149.89,312.12Z" transform="translate(5.1 5.09)"/><path class="cls-164" d="M242,310.66c-1,.7-1.3,1-1.36,1a4,4,0,0,1-1.23-1.22c-.24-.49.09-.87.71-.61S241.3,310.33,242,310.66Z" transform="translate(5.1 5.09)"/><path class="cls-165" d="M113.82,111c-1.52.23-3.51.93-1.85-1.91A1.84,1.84,0,0,1,113.82,111Z" transform="translate(5.1 5.09)"/><path class="cls-166" d="M110,107c-1.2-.12-3,.37-2-2C109.37,104.93,110,105.67,110,107Z" transform="translate(5.1 5.09)"/><path class="cls-91" d="M175.35,126.87,173,127a2.56,2.56,0,0,1-1.89.79c-3.33-1.46-4.94-4.5-6.75-7.36A16.67,16.67,0,0,0,163,119c.91-1.35,0-2.73.07-4.1A92.08,92.08,0,0,1,175.35,126.87Z" transform="translate(5.1 5.09)"/><path class="cls-86" d="M163.11,114.92A26.52,26.52,0,0,1,150,104a1.61,1.61,0,0,1,1-1A83,83,0,0,1,163.11,114.92Z" transform="translate(5.1 5.09)"/><path class="cls-167" d="M151,103.05l-1,1c-2.06-1.64-3.05,2.07-5,1-.65-2.4,1.42-3.91,2-5.93A9.88,9.88,0,0,1,151,103.05Z" transform="translate(5.1 5.09)"/><path class="cls-168" d="M134.22,86.9c-6,.06-7-.92-6.17-6A26.58,26.58,0,0,1,134.22,86.9Z" transform="translate(5.1 5.09)"/><path class="cls-169" d="M183,137l1-2a6.63,6.63,0,0,1,3.4,3.8L185,139C183.26,139.39,183.1,138.22,183,137Z" transform="translate(5.1 5.09)"/><path class="cls-169" d="M184,135c-2.37-.22-4.84-.33-4-3.86A10.6,10.6,0,0,1,184,135Z" transform="translate(5.1 5.09)"/><path class="cls-170" d="M205.07,162.92c.26-1.92,1.9-2.77,3.08-4l.94.92C208.28,161.57,207.52,163.35,205.07,162.92Z" transform="translate(5.1 5.09)"/><path class="cls-171" d="M120.92,74c-1.12.26-2.58,1.9-3.24,0-.42-1.19,1.35-.85,2.21-1Z" transform="translate(5.1 5.09)"/><path class="cls-172" d="M139,100l-1-2c1.17-1.14,1.39-3.56,3.89-2.93A5.84,5.84,0,0,1,139,100Z" transform="translate(5.1 5.09)"/><path class="cls-173" d="M61,159l0-2c2.86-.33,4.87,1.18,6.51,3.21.21.25-.59,1.94-.95,1.94C64.15,162.19,62.66,160.41,61,159Z" transform="translate(5.1 5.09)"/><path class="cls-174" d="M66.43,70.15c2-1.36,3.65-1.69,4.93-.41.71.72,0,2.08-.79,2.48C68.6,73.2,67.86,71.3,66.43,70.15Z" transform="translate(5.1 5.09)"/><path class="cls-175" d="M70,77a2.19,2.19,0,0,1-1-2c2.37.78,3.7-3.2,6.36-1.37,0,1.73-2.68,1.51-2.37,3.37H70Z" transform="translate(5.1 5.09)"/><path class="cls-175" d="M73,77c1.63.26,2.22,1.22,1.7,2.74-.09.26-1,.58-1.08.46-.91-.89-.52-2.1-.62-3.2Z" transform="translate(5.1 5.09)"/><path class="cls-176" d="M83,89c1.12.27,3.13-.62,3.16.94s-1.92.81-3,.94C83.09,90.26,83.05,89.63,83,89Z" transform="translate(5.1 5.09)"/><path class="cls-177" d="M401,215h3c-.15.88.35,2.28-.95,2.38S401.59,215.89,401,215Z" transform="translate(5.1 5.09)"/><path class="cls-178" d="M97,103c-.2-1.79-3.1-3.39-.5-5.38,1.79-1.37,2.38.77,3.49,1.39C101.19,102,99.71,102.94,97,103Z" transform="translate(5.1 5.09)"/><path class="cls-179" d="M117.64,121l.8,1.1c-.34.23-.71.66-1,.64s-.57-.53-.86-.82Z" transform="translate(5.1 5.09)"/><path class="cls-180" d="M183,137l2,2c-.32,1.74-1.24,2.47-2.72,1.2a5.23,5.23,0,0,0-3.12-1.31C179.46,136.28,181.52,137.23,183,137Z" transform="translate(5.1 5.09)"/><path class="cls-181" d="M168,173c.38-2.46,2.22-1.93,3.83-1.86C171.52,173.71,169.49,172.78,168,173Z" transform="translate(5.1 5.09)"/><path class="cls-182" d="M405,145l-4-2c.41-2.52,2.41-1.82,4-2Z" transform="translate(5.1 5.09)"/><path class="cls-183" d="M315.13,150.91c.06-1.94,1.4-1.91,2.78-1.8C317.79,151,316.52,151,315.13,150.91Z" transform="translate(5.1 5.09)"/><path class="cls-184" d="M406,145h3a2.14,2.14,0,0,1,3,0C410,148.26,408,149.79,406,145Z" transform="translate(5.1 5.09)"/><path class="cls-185" d="M412,145h-3c.18-1.89,1.47-2.05,3-1.89C412,143.73,412,144.36,412,145Z" transform="translate(5.1 5.09)"/><path class="cls-139" d="M379,205v2a2.28,2.28,0,0,1-2.3-2.56,1.43,1.43,0,0,1,.91-1C378.71,203.3,378.86,204.19,379,205Z" transform="translate(5.1 5.09)"/><path class="cls-186" d="M212,219.06c.2-.94.41-1.94,1.69-1.78.28,0,.78.7.71.87-.48,1.09-1.56.73-2.44.88Z" transform="translate(5.1 5.09)"/><path class="cls-187" d="M221,223c-.08,1.25.34,3-2,2A1.86,1.86,0,0,1,221,223Z" transform="translate(5.1 5.09)"/><path class="cls-188" d="M144.77,147.92c-.54.39-.87.82-1.19.82s-.69-.42-1-.66c.29-.29.56-.76.88-.81S144.15,147.6,144.77,147.92Z" transform="translate(5.1 5.09)"/><path class="cls-189" d="M91.9,181.11c0,1.07-.35,2.15-1.47,2.3-1.44.18-1.38-1.09-1.37-2s.21-2.09,1.56-2C91.64,179.38,91.85,180.24,91.9,181.11Z" transform="translate(5.1 5.09)"/><path class="cls-180" d="M163,119l2,0a3.54,3.54,0,0,1,0,4l-2.9-.16Z" transform="translate(5.1 5.09)"/><path class="cls-190" d="M171,127h2c.06,1.64,2.12,4.25-1.9,3.92,0-.64-.05-1.28-.08-1.93A1.33,1.33,0,0,1,171,127Z" transform="translate(5.1 5.09)"/><path class="cls-191" d="M231,233c-.16,1.86-1.39,2.05-2.87,1.84C228.23,232.91,229.66,233,231,233Z" transform="translate(5.1 5.09)"/><path class="cls-51" d="M171,127v2a11.17,11.17,0,0,1-6-6v-4C167.27,121.47,167.8,125.24,171,127Z" transform="translate(5.1 5.09)"/></svg>